<svg id="Layer_3" enable-background="new 0 0 64 64" height="512" viewBox="0 0 64 64" width="512" xmlns="http://www.w3.org/2000/svg"><g><path d="m56 18h-8c-3.314 0-6 2.686-6 6v13c0 1.105.895 2 2 2h2v-4h12v4h2c1.105 0 2-.895 2-2v-13c0-3.314-2.686-6-6-6z" fill="#f4b2b0"/><g fill="#b3404a"><path d="m56.439 17.022c.528-.582.942-1.267 1.211-2.022h.35c1.654 0 3-1.346 3-3 0-.883-.391-1.67-1-2.22v-.78c0-4.411-3.589-8-8-8s-8 3.589-8 8v.78c-.609.549-1 1.337-1 2.22 0 1.654 1.346 3 3 3h.35c.268.755.683 1.44 1.211 2.022-3.655.229-6.561 3.267-6.561 6.978v13c0 1.654 1.346 3 3 3h1v17.184c-1.161.414-2 1.514-2 2.816v2c0 .553.448 1 1 1h8 8c.552 0 1-.447 1-1v-2c0-1.302-.839-2.402-2-2.816v-17.184h1c1.654 0 3-1.346 3-3v-13c0-3.711-2.906-6.749-6.561-6.978zm-8.439-4.022v-2.523l3.628 1.452c.483.194 1.033-.018 1.266-.481l.379-.759 1.019 1.019c.391.391 1.023.391 1.414 0l.294-.294v1.586c0 2.206-1.794 4-4 4s-4-1.794-4-4zm6 6c0 1.103-.897 2-2 2s-2-.897-2-2zm4-6v-2c.551 0 1 .448 1 1s-.449 1-1 1zm-13-1c0-.552.449-1 1-1v2c-.551 0-1-.448-1-1zm1.439-3.828c-.274.186-.439.496-.439.828 0-3.309 2.691-6 6-6s6 2.691 6 6c0-.404-.244-.77-.617-.924-.375-.157-.804-.07-1.09.217l-1.293 1.293-1.293-1.293c-.228-.229-.551-.335-.867-.28-.317.052-.59.253-.734.54l-.588 1.177-4.146-1.658c-.31-.124-.658-.085-.933.1zm1.561 10.828c0 2.206 1.794 4 4 4s4-1.794 4-4c2.757 0 5 2.243 5 5v10h-2v-11h-2v11h-10v-11h-2v11h-2v-10c0-2.757 2.243-5 5-5zm-4 19c-.551 0-1-.448-1-1v-1h2v2zm7 23h-6v-1c0-.552.449-1 1-1h5zm0-21v17h-4v-21h10v21h-4v-17zm8 21h-6v-2h5c.551 0 1 .448 1 1zm1-23h-1v-2h2v1c0 .552-.449 1-1 1z"/><path d="m19 57.184v-17.184h1c1.654 0 3-1.346 3-3v-13c0-3.711-2.906-6.749-6.561-6.978.528-.582.942-1.267 1.211-2.022h.35c1.654 0 3-1.346 3-3 0-.883-.391-1.67-1-2.22v-.78c0-4.411-3.589-8-8-8s-8 3.589-8 8v.78c-.609.55-1 1.337-1 2.22 0 1.654 1.346 3 3 3h.35c.268.755.683 1.44 1.211 2.022-3.655.229-6.561 3.267-6.561 6.978v13c0 1.654 1.346 3 3 3h1v17.184c-1.161.414-2 1.514-2 2.816v2c0 .553.448 1 1 1h8 8c.552 0 1-.447 1-1v-2c0-1.302-.839-2.402-2-2.816zm1-19.184h-1v-2h2v1c0 .552-.449 1-1 1zm-12-25v-2.523l3.628 1.452c.484.194 1.033-.018 1.266-.481l.379-.759 1.019 1.019c.391.391 1.023.391 1.414 0l.294-.294v1.586c0 2.206-1.794 4-4 4s-4-1.794-4-4zm6 6c0 1.103-.897 2-2 2s-2-.897-2-2zm4-6v-2c.551 0 1 .448 1 1s-.449 1-1 1zm-13-1c0-.552.449-1 1-1v2c-.551 0-1-.448-1-1zm1.439-3.828c-.274.186-.439.496-.439.828 0-3.309 2.691-6 6-6s6 2.691 6 6c0-.404-.244-.77-.617-.924-.375-.157-.804-.07-1.09.217l-1.293 1.293-1.293-1.293c-.228-.229-.552-.335-.867-.28-.317.052-.59.253-.734.54l-.588 1.177-4.146-1.659c-.308-.123-.658-.084-.933.101zm1.561 10.828c0 2.206 1.794 4 4 4s4-1.794 4-4c2.757 0 5 2.243 5 5v10h-2v-11h-2v11h-10v-11h-2v11h-2v-10c0-2.757 2.243-5 5-5zm-4 19c-.551 0-1-.448-1-1v-1h2v2zm7 23h-6v-1c0-.552.449-1 1-1h5zm0-21v17h-4v-21h10v21h-4v-17zm8 21h-6v-2h5c.551 0 1 .448 1 1z"/><path d="m42.707 51.293-3-3-1.414 1.414 1.293 1.293h-15.172l1.293-1.293-1.414-1.414-3 3c-.391.391-.391 1.023 0 1.414l3 3 1.414-1.414-1.293-1.293h15.172l-1.293 1.293 1.414 1.414 3-3c.391-.391.391-1.023 0-1.414z"/><path d="m25.4 44.2c-.344.258-.485.708-.349 1.116.136.409.518.684.949.684h5v-2h-2l.8-.6c.751-.563 1.2-1.46 1.2-2.4 0-1.654-1.346-3-3-3s-3 1.346-3 3h2c0-.552.449-1 1-1s1 .448 1 1c0 .313-.149.612-.4.8z"/><path d="m35 43.236.105.211c.339.678 1.45.678 1.789 0l.106-.211v2.764h2v-7c0-.464-.319-.866-.77-.974-.455-.103-.917.111-1.125.526l-1.105 2.212-1.105-2.211c-.208-.415-.67-.628-1.125-.526-.451.107-.77.509-.77.973v7h2z"/></g></g></svg>